<svg width="49" height="10" viewBox="0 0 49 10" fill="none" xmlns="http://www.w3.org/2000/svg">
<path d="M3.72017 9.11932C3.18608 9.11932 2.70597 9.01705 2.27983 8.8125C1.85653 8.60511 1.51847 8.32102 1.26562 7.96023C1.01278 7.59943 0.877841 7.1875 0.860795 6.72443H2.1392C2.1733 7.09943 2.33949 7.40767 2.63778 7.64915C2.93892 7.89062 3.29972 8.01136 3.72017 8.01136C4.0554 8.01136 4.35227 7.93466 4.6108 7.78125C4.87216 7.625 5.0767 7.41051 5.22443 7.13778C5.375 6.86506 5.45028 6.55398 5.45028 6.20455C5.45028 5.84943 5.37358 5.53409 5.22017 5.25852C5.06676 4.98011 4.85511 4.76136 4.58523 4.60227C4.31818 4.44034 4.01136 4.35795 3.66477 4.35511C3.40057 4.35511 3.13494 4.40057 2.8679 4.49148C2.60085 4.58239 2.38494 4.7017 2.22017 4.84943L1.0142 4.67045L1.50426 0.272727H6.30256V1.40199H2.59943L2.32244 3.84375H2.37358C2.54403 3.67614 2.76989 3.53835 3.05114 3.4304C3.33523 3.3196 3.6392 3.2642 3.96307 3.2642C4.49432 3.2642 4.96733 3.39062 5.3821 3.64347C5.79972 3.89347 6.12784 4.23864 6.36648 4.67898C6.60795 5.11648 6.72727 5.61648 6.72443 6.17898C6.72727 6.74432 6.59943 7.24858 6.34091 7.69176C6.08523 8.13494 5.73011 8.48437 5.27557 8.74006C4.82386 8.9929 4.3054 9.11932 3.72017 9.11932ZM19.5132 7.91761C19.2803 7.91761 19.08 7.83523 18.9124 7.67045C18.7447 7.50284 18.6609 7.30114 18.6609 7.06534C18.6609 6.83239 18.7447 6.63352 18.9124 6.46875C19.08 6.30114 19.2803 6.21733 19.5132 6.21733C19.7462 6.21733 19.9464 6.30114 20.1141 6.46875C20.2817 6.63352 20.3655 6.83239 20.3655 7.06534C20.3655 7.30114 20.2817 7.50284 20.1141 7.67045C19.9464 7.83523 19.7462 7.91761 19.5132 7.91761ZM19.5132 3.54545C19.2803 3.54545 19.08 3.46307 18.9124 3.2983C18.7447 3.13068 18.6609 2.92898 18.6609 2.69318C18.6609 2.46023 18.7447 2.26136 18.9124 2.09659C19.08 1.92898 19.2803 1.84517 19.5132 1.84517C19.7462 1.84517 19.9464 1.92898 20.1141 2.09659C20.2817 2.26136 20.3655 2.46023 20.3655 2.69318C20.3655 2.92898 20.2817 3.13068 20.1141 3.2983C19.9464 3.46307 19.7462 3.54545 19.5132 3.54545ZM32.4309 9V8.04545L35.384 4.9858C35.6965 4.65341 35.9565 4.36222 36.1638 4.11222C36.3712 3.85937 36.5261 3.61932 36.6283 3.39205C36.7306 3.16477 36.7817 2.9233 36.7817 2.66761C36.7817 2.23295 36.6326 1.8892 36.3343 1.63636C36.036 1.38068 35.6653 1.25284 35.2221 1.25284C34.7505 1.25284 34.3741 1.39489 34.0928 1.67898C33.8144 1.96023 33.6766 2.33523 33.6795 2.80398H32.4224C32.4224 2.27273 32.5445 1.80824 32.7888 1.41051C33.0332 1.01278 33.3684 0.704545 33.7945 0.485795C34.2207 0.264204 34.705 0.153409 35.2477 0.153409C35.796 0.153409 36.2789 0.262784 36.6965 0.481534C37.117 0.697443 37.4451 0.992897 37.6809 1.3679C37.9167 1.74006 38.0346 2.16051 38.0346 2.62926C38.0346 2.95312 37.9735 3.26989 37.8513 3.57955C37.732 3.8892 37.5232 4.23437 37.2249 4.61506C36.9295 4.9929 36.5147 5.4517 35.9806 5.99148L34.2462 7.80682V7.87074H38.1752V9H32.4309ZM43.6843 9L47.494 1.46591V1.40199H43.0877V0.272727H48.8576V1.44034L45.0607 9H43.6843Z" fill="white"/>
</svg>
