<svg width="50" height="10" viewBox="0 0 50 10" fill="none" xmlns="http://www.w3.org/2000/svg">
<path d="M0.839489 9V8.04545L3.79261 4.9858C4.10511 4.65341 4.36506 4.36222 4.57244 4.11222C4.77983 3.85937 4.93466 3.61932 5.03693 3.39205C5.1392 3.16477 5.19034 2.9233 5.19034 2.66761C5.19034 2.23295 5.04119 1.8892 4.7429 1.63636C4.4446 1.38068 4.07386 1.25284 3.63068 1.25284C3.15909 1.25284 2.78267 1.39489 2.50142 1.67898C2.22301 1.96023 2.08523 2.33523 2.08807 2.80398H0.830966C0.830966 2.27273 0.953125 1.80824 1.19744 1.41051C1.44176 1.01278 1.77699 0.704545 2.20312 0.485795C2.62926 0.264204 3.11364 0.153409 3.65625 0.153409C4.20455 0.153409 4.6875 0.262784 5.10511 0.481534C5.52557 0.697443 5.85369 0.992897 6.08949 1.3679C6.32528 1.74006 6.44318 2.16051 6.44318 2.62926C6.44318 2.95312 6.3821 3.26989 6.25994 3.57955C6.14063 3.8892 5.93182 4.23437 5.63352 4.61506C5.33807 4.9929 4.9233 5.4517 4.3892 5.99148L2.65483 7.80682V7.87074H6.58381V9H0.839489ZM19.4312 7.91761C19.1982 7.91761 18.9979 7.83523 18.8303 7.67045C18.6627 7.50284 18.5789 7.30114 18.5789 7.06534C18.5789 6.83239 18.6627 6.63352 18.8303 6.46875C18.9979 6.30114 19.1982 6.21733 19.4312 6.21733C19.6641 6.21733 19.8644 6.30114 20.032 6.46875C20.1996 6.63352 20.2835 6.83239 20.2835 7.06534C20.2835 7.30114 20.1996 7.50284 20.032 7.67045C19.8644 7.83523 19.6641 7.91761 19.4312 7.91761ZM19.4312 3.54545C19.1982 3.54545 18.9979 3.46307 18.8303 3.2983C18.6627 3.13068 18.5789 2.92898 18.5789 2.69318C18.5789 2.46023 18.6627 2.26136 18.8303 2.09659C18.9979 1.92898 19.1982 1.84517 19.4312 1.84517C19.6641 1.84517 19.8644 1.92898 20.032 2.09659C20.1996 2.26136 20.2835 2.46023 20.2835 2.69318C20.2835 2.92898 20.1996 3.13068 20.032 3.2983C19.8644 3.46307 19.6641 3.54545 19.4312 3.54545ZM35.3872 9.11932C34.7991 9.11932 34.2764 9.01847 33.819 8.81676C33.3616 8.61506 32.9994 8.33523 32.7324 7.97727C32.4682 7.61648 32.3261 7.19886 32.3062 6.72443H33.6443C33.6699 7.1108 33.8474 7.41761 34.177 7.64489C34.5065 7.87216 34.9071 7.9858 35.3787 7.9858C35.8929 7.9858 36.3148 7.85511 36.6443 7.59375C36.9767 7.32955 37.1429 6.9858 37.1429 6.5625C37.1429 6.12216 36.9753 5.7642 36.6401 5.48864C36.3077 5.21023 35.8389 5.07102 35.2338 5.07102H34.4966V3.99716H35.2338C35.7168 3.99716 36.1116 3.86932 36.4185 3.61364C36.7253 3.35795 36.8773 3.01989 36.8744 2.59943C36.8773 2.19602 36.7437 1.87074 36.4739 1.62358C36.2068 1.37642 35.8503 1.25284 35.4043 1.25284C34.9753 1.25284 34.5974 1.3679 34.2707 1.59801C33.9469 1.82528 33.7778 2.1392 33.7636 2.53977H32.4895C32.5037 2.06534 32.6429 1.64915 32.9071 1.29119C33.1741 0.933238 33.5264 0.654829 33.9639 0.455966C34.4014 0.254261 34.8872 0.153409 35.4213 0.153409C35.981 0.153409 36.4653 0.262784 36.8744 0.481534C37.2835 0.700284 37.5989 0.990057 37.8205 1.35085C38.042 1.70881 38.1514 2.10227 38.1486 2.53125C38.1514 3.01989 38.0165 3.43466 37.7437 3.77557C37.471 4.11648 37.106 4.34517 36.6486 4.46165V4.52983C37.2281 4.6179 37.677 4.84801 37.9952 5.22017C38.3162 5.59233 38.4753 6.05398 38.4724 6.60511C38.4753 7.08807 38.3432 7.51989 38.0761 7.90057C37.8091 8.27841 37.4426 8.5767 36.9767 8.79545C36.5108 9.01136 35.981 9.11932 35.3872 9.11932ZM46.7301 9.11932C46.3438 9.11648 45.9616 9.04688 45.5838 8.91051C45.206 8.77131 44.8636 8.54261 44.5568 8.22443C44.25 7.90625 44.0043 7.47869 43.8196 6.94176C43.6378 6.40483 43.5469 5.73437 43.5469 4.9304C43.5469 3.91051 43.6804 3.04403 43.9474 2.33097C44.2145 1.61506 44.5938 1.0696 45.0852 0.694602C45.5795 0.319602 46.1648 0.132102 46.8409 0.132102C47.3608 0.132102 47.8224 0.235795 48.2259 0.443182C48.6293 0.647727 48.9574 0.931818 49.2102 1.29545C49.4631 1.65625 49.6222 2.07102 49.6875 2.53977H48.3878C48.2997 2.16761 48.125 1.86648 47.8636 1.63636C47.6023 1.40341 47.2614 1.28693 46.8409 1.28693C46.2017 1.28693 45.7031 1.56534 45.3452 2.12216C44.9901 2.67898 44.8111 3.45881 44.8082 4.46165H44.8722C45.0966 4.09233 45.3977 3.80398 45.7756 3.59659C46.1562 3.38636 46.5767 3.28125 47.0369 3.28125C47.5426 3.28125 48.0014 3.40483 48.4134 3.65199C48.8253 3.89631 49.1534 4.23437 49.3977 4.66619C49.642 5.09801 49.7628 5.59233 49.7599 6.14915C49.7628 6.70597 49.6378 7.21023 49.3849 7.66193C49.1321 8.11364 48.7784 8.47159 48.3239 8.7358C47.8693 8.99716 47.3381 9.125 46.7301 9.11932ZM46.7259 8.01136C47.0582 8.01136 47.3565 7.92898 47.6207 7.7642C47.8878 7.59943 48.098 7.37784 48.2514 7.09943C48.4077 6.82102 48.4844 6.50994 48.4815 6.16619C48.4844 5.82812 48.4105 5.52273 48.2599 5.25C48.1094 4.97443 47.9034 4.75568 47.642 4.59375C47.3835 4.43182 47.0881 4.35085 46.7557 4.35085C46.4205 4.35085 46.1179 4.43608 45.848 4.60653C45.581 4.77415 45.3679 4.99716 45.2088 5.27557C45.0526 5.55114 44.973 5.85227 44.9702 6.17898C44.9702 6.50568 45.0455 6.80824 45.196 7.08665C45.3494 7.36506 45.5582 7.58949 45.8224 7.75994C46.0866 7.92756 46.3878 8.01136 46.7259 8.01136Z" fill="white"/>
</svg>
