<svg width="156" height="37" viewBox="0 0 156 37" fill="none" xmlns="http://www.w3.org/2000/svg">
<path d="M72 17.1972V14.0033H84.5059V17.1972H80.178V28.604H76.3279V17.1972H72Z" fill="white"/>
<path d="M89.9104 22.4443V28.604H86.0322V14.0033H89.7699V19.7352H89.8823C90.1259 19.0365 90.531 18.4923 91.0978 18.1026C91.6645 17.7081 92.346 17.5109 93.1423 17.5109C93.9057 17.5109 94.5685 17.6867 95.1306 18.0385C95.6973 18.3902 96.1352 18.875 96.4444 19.4928C96.7582 20.1107 96.9128 20.8189 96.9081 21.6173V28.604H93.0299V22.4443C93.0345 21.9025 92.9011 21.4771 92.6294 21.1682C92.3624 20.8593 91.9807 20.7048 91.4842 20.7048C91.0111 20.7048 90.6317 20.8593 90.346 21.1682C90.0603 21.4771 89.9151 21.9025 89.9104 22.4443Z" fill="white"/>
<path d="M103.994 28.8037C102.265 28.8037 100.905 28.307 99.9116 27.3136C98.9233 26.3155 98.4292 24.9301 98.4292 23.1573C98.4292 22.0261 98.654 21.0375 99.1036 20.1915C99.5533 19.3455 100.188 18.6872 101.008 18.2167C101.827 17.7462 102.794 17.5109 103.909 17.5109C104.996 17.5109 105.94 17.7366 106.741 18.1882C107.546 18.6397 108.169 19.2861 108.609 20.1273C109.054 20.9638 109.277 21.9643 109.277 23.1288V24.0413H102.251V24.2124C102.251 24.74 102.41 25.1772 102.729 25.5242C103.052 25.8664 103.502 26.0375 104.078 26.0375C104.476 26.0375 104.823 25.9543 105.118 25.788C105.417 25.6169 105.624 25.3769 105.736 25.0679H109.277C109.094 26.2086 108.542 27.1164 107.619 27.7913C106.701 28.4662 105.492 28.8037 103.994 28.8037ZM102.251 21.874H105.708C105.698 21.4035 105.53 21.0209 105.202 20.7262C104.879 20.4268 104.476 20.277 103.994 20.277C103.52 20.277 103.113 20.4244 102.771 20.7191C102.434 21.0137 102.261 21.3987 102.251 21.874Z" fill="white"/>
<path d="M123.288 14.0033H127.166V23.6421C127.166 24.7542 126.909 25.6929 126.393 26.4581C125.883 27.2186 125.162 27.7961 124.23 28.1905C123.302 28.5803 122.211 28.7751 120.956 28.7751C119.691 28.7751 118.592 28.5803 117.66 28.1905C116.733 27.7961 116.014 27.2186 115.504 26.4581C114.998 25.6929 114.745 24.7542 114.745 23.6421V14.0033H118.651V23.471C118.651 24.0128 118.855 24.4524 119.262 24.7899C119.674 25.1273 120.239 25.2961 120.956 25.2961C121.686 25.2961 122.258 25.1273 122.67 24.7899C123.082 24.4524 123.288 24.0128 123.288 23.471V14.0033Z" fill="white"/>
<path d="M136.779 18.566C136.742 18.0907 136.566 17.72 136.252 17.4538C135.943 17.1877 135.472 17.0546 134.84 17.0546C134.236 17.0546 133.796 17.1592 133.519 17.3683C133.243 17.5774 133.102 17.8436 133.098 18.1668C133.079 18.5137 133.227 18.7965 133.54 19.0152C133.859 19.2338 134.358 19.4168 135.037 19.5641L136.217 19.8208C137.805 20.1677 138.95 20.7238 139.653 21.489C140.355 22.2495 140.709 23.1858 140.714 24.298C140.709 25.7381 140.189 26.8455 139.154 27.6202C138.119 28.3902 136.69 28.7751 134.868 28.7751C133.618 28.7751 132.526 28.5874 131.594 28.2119C130.667 27.8365 129.946 27.259 129.43 26.4795C128.92 25.6953 128.662 24.6924 128.658 23.471H132.367C132.4 24.1411 132.627 24.652 133.049 25.0038C133.475 25.3507 134.063 25.5242 134.812 25.5242C135.44 25.5242 135.913 25.4101 136.231 25.182C136.554 24.9539 136.718 24.6592 136.723 24.298C136.718 23.9653 136.557 23.6896 136.238 23.471C135.92 23.2476 135.36 23.048 134.559 22.8721L133.126 22.5584C131.852 22.278 130.847 21.8098 130.112 21.1539C129.381 20.4933 129.018 19.5926 129.023 18.452C129.018 17.5251 129.262 16.7148 129.754 16.0209C130.25 15.3222 130.936 14.778 131.812 14.3883C132.693 13.9985 133.702 13.8037 134.84 13.8037C136.002 13.8037 137.006 14.0009 137.854 14.3954C138.702 14.7899 139.355 15.346 139.814 16.0636C140.278 16.7766 140.512 17.6107 140.517 18.566H136.779Z" fill="white"/>
<path d="M145.377 28.604H141.162L145.911 14.0033H151.251L156 28.604H151.785L150.956 25.8094H146.206L145.377 28.604ZM147.091 22.8436H150.07L148.637 18.0242H148.525L147.091 22.8436Z" fill="white"/>
<path d="M59.8214 4.51098V4.87235L58.7417 5.83193L58.2081 5.81434L57.8026 6.03089L57.913 6.46534V6.77257L56.9725 7.22597L56.8084 7.85937V9.0531L57.5462 9.92065L57.4538 10.2834L56.6788 10.5906V11.0778L56.1217 11.3729L55.7549 11.5664H55.1468L54.1884 12.526L54.336 12.6708L54.5028 13.7563L53.8754 15.1692L53.6369 15.1327L53.5817 14.7334L52.986 14.701L53.3955 15.4034L53.8754 15.9637L53.6727 16.7974L53.3404 17.3307H53.0149L53.0646 16.7243L52.7833 16.2885L52.371 16.076L52.3282 15.5293L52.4579 14.8417L52.2565 14.7145L51.7946 15.1855L51.9614 15.5293L51.9987 16.2899L52.2938 16.4347L52.6068 17.014L52.6743 17.3293L52.7157 17.5202L52.5861 17.937L53.066 17.9736L53.4355 18.1333L53.3431 18.588L53.6562 18.787L53.6382 18.967L53.3238 19.2566L53.8768 19.6735V20.2162L53.4521 20.4693L53.7099 20.9213L53.5265 21.3747L52.069 21.6089V22.1692L51.6457 22.9664L50.9631 23.1125L50.8583 23.2871L50.4653 23.9435L50.4846 24.3063L49.6007 25.2279H49.2284L48.9333 25.8613L48.4534 26.1144L48.4451 26.266L48.3252 28.1419L48.6754 28.5953L48.8243 29.2273L48.8436 29.2449L49.2118 29.5535V30.0434L50.0957 30.7851L50.1881 31.6188L50.5191 32.2265L51.1658 33.4108V35.2054H49.8006C49.8006 35.2054 49.802 35.1892 49.8006 35.1851C49.7482 35.0525 49.4131 34.7656 49.4131 34.7656L48.8988 34.8048V34.189H48.5472L48.3996 33.9549V33.6111L48.1045 33.5921L47.5157 32.9222L47.5902 32.5419L47.2951 32.5784L47.1462 32.3077L47.1655 32.2279L47.2951 31.6743L47.2013 30.7337L46.8883 30.6254L45.9492 29.6117L45.155 29.5562L44.2159 30.0989L43.8463 30.1896L43.2755 29.3586L41.7517 29.2476L41.5242 29.2314L41.5007 29.2476L41.0264 29.5928L40.7685 29.3031L40.4417 29.5873L39.0724 29.5928V30.172L38.8146 30.5158L39.5151 31.2223L39.1276 31.4564L38.1871 31.022L37.688 31.6026L36.8413 31.5999L36.6027 30.7851L35.6251 30.5144V30.9313L35.4237 31.0585L34.0765 30.7148H33.5056L31.6799 31.5106V31.8733L30.9435 32.3605L30.1313 32.5243L29.8362 32.9587L29.4308 32.9953L29.2102 33.5015L28.9344 33.5746L28.9523 34.6248C28.9013 34.7981 28.9082 35.0051 28.9386 35.2054C29.0089 35.6575 29.2102 36.0892 29.2102 36.0892L28.9703 36.2692L27.9761 35.9796C27.3348 35.8578 26.9405 35.5208 26.7033 35.2054C26.4468 34.8657 26.371 34.5517 26.371 34.5517C26.2979 34.0618 26.1876 33.8818 26.1876 33.8818C25.5794 33.538 25.1175 32.2712 25.1175 32.2712C25.112 32.255 25.1051 32.2414 25.0982 32.2279C24.6569 31.1898 24.0295 30.6796 24.0295 30.6796H23.4214L23.238 30.4806L22.2052 30.4441V31.1506L21.5598 31.6378C20.6014 31.4036 19.923 30.2343 19.923 30.2343L19.9561 29.5941L17.8546 27.097L15.8992 26.9522L15.7351 27.6952L12.2492 27.2784L8.24885 24.9072V24.2738H5.43994L5.34893 23.2912L5.31032 22.8635L4.83045 22.6835V22.1408H4.3878L4.32024 21.7496L3.94654 21.6522L3.24466 20.8022L2.32352 20.694L2.0105 20.4409L2.05325 20.315L2.05463 20.3136L2.1939 19.9144L2.08359 19.7168L1.98982 19.4813L2.11944 19.1551L1.53063 17.7259L1.36378 17.5797V17.3632L1.62164 17.0925V16.8218L1.19692 16.3318L1.23416 15.264L0.846673 14.8471L0.883904 14.2679L0.452294 13.6277L0.49642 12.7696L0.626041 12.2228L0 11.5312L0.351631 11.0602L0.995599 10.0289L0.922515 9.52274L1.10591 9.19656L1.18038 7.89456L2.36076 5.79404V5.32304L2.55794 5.04018L2.72893 4.79791L3.09849 3.64073V3.3159L3.43082 2.93559L3.22811 2.57287L3.25155 1.98278L3.55906 1.68908L3.26534 1.64848L3.28327 1.21538L3.09987 1.1247V0.83642L3.28327 0.349185H3.54113L3.70798 0.783636L4.3161 1.01913L4.96145 1.12741V1.56321L4.68566 1.94353L4.3161 2.0694L4.39056 2.64866H4.92421L5.29377 2.21421V1.70532L5.44132 1.52532L5.14623 1.145L5.35858 0.782283L5.44132 0.584682L5.27447 0.420917L5.43994 0L7.72485 0.691603L10.5476 1.43328L11.5142 1.64306L11.6355 1.66878L16.4481 2.42941L16.5529 2.44294L17.7277 2.58099L23.6986 3.29019L28.8917 3.51486L31.3255 3.3538V2.88281L31.8247 3.17109V3.76795L32.8575 4.13067L33.1526 3.80449L33.9262 4.05758L34.1482 4.4203L34.9039 4.6734L35.4941 4.49068L36.7834 4.68964L37.0978 4.2024L37.4839 4.16586L37.9996 3.62313L37.9638 3.42418L38.1113 3.15349L39.5123 3.20763L39.7702 3.3714L40.3052 4.36617L40.8389 4.38511L40.9492 4.09548L41.4111 4.36617L41.4483 4.83851L41.7434 5.03611L41.7572 5.41778L41.7614 5.5626L42.0744 5.58019V5.96051L42.4246 6.2136L42.5736 6.53842L43.827 6.46669L45.7148 6.42879L46.4636 7.15423L47.0524 8.02178L46.8304 8.39668H46.0113L45.5976 7.93246L45.468 8.00554L45.5204 8.39668L45.5604 8.69173L45.1729 9.37927L45.4307 10.4295L44.8406 10.9005L44.7868 11.8236L44.1787 12.0212V12.3298L44.8612 12.3663L45.8375 11.2619L46.7407 11.316L47.535 10.7016L48.0866 10.7192L48.2341 10.4295L48.1059 10.1764L47.5157 10.2495L47.4233 9.83267L48.0121 9.27235L49.0077 8.74857L49.7841 8.78376L49.6724 8.43999L50.9065 7.93381L51.1837 7.37349L51.9587 6.70354L54.9082 6.03224L55.0916 5.54636L55.5467 5.42049L55.5508 5.41914L55.6625 5.20259L55.6805 4.85882L55.9397 4.76814L55.9204 4.38782L55.6998 3.93442L56.0045 2.44159H58.0357L58.5211 3.93442L58.9637 3.95337L59.0161 4.41895L59.8214 4.51098Z" fill="white"/>
</svg>
