<svg width="158" height="14" viewBox="0 0 158 14" fill="none" xmlns="http://www.w3.org/2000/svg">
<path d="M1.65057 11H0.357955L4.09659 0.818182H5.36932L9.10795 11H7.81534L6.79119 8.11648H2.67472L1.65057 11ZM3.0625 7.02273H6.40341L4.77273 2.42898H4.69318L3.0625 7.02273ZM15.3473 7.87784V3.36364H16.5206V11H15.3473V9.70739H15.2678C15.0888 10.0952 14.8104 10.425 14.4325 10.6967C14.0547 10.9652 13.5774 11.0994 13.0007 11.0994C12.2848 11.0994 11.6948 10.8625 11.2308 10.3885C10.7668 9.91454 10.5348 9.19034 10.5348 8.21591V3.36364H11.7081V8.13636C11.7081 8.69318 11.8639 9.13731 12.1754 9.46875C12.4903 9.80019 12.8913 9.96591 13.3786 9.96591C13.6702 9.96591 13.9669 9.89134 14.2685 9.74219C14.5734 9.59304 14.8286 9.36435 15.0341 9.05611C15.2429 8.74787 15.3473 8.35511 15.3473 7.87784ZM21.9906 3.36364V4.35795H20.3599V8.8125C20.3599 9.14394 20.408 9.39252 20.5041 9.55824C20.6035 9.72064 20.7295 9.83002 20.8819 9.88636C21.0377 9.93939 21.2018 9.96591 21.3741 9.96591C21.5034 9.96591 21.6094 9.95928 21.6923 9.94602C21.7752 9.92945 21.8414 9.91619 21.8912 9.90625L22.1298 10.9602C22.0502 10.9901 21.9392 11.0199 21.7967 11.0497C21.6542 11.0829 21.4735 11.0994 21.2548 11.0994C20.9234 11.0994 20.5985 11.0282 20.2804 10.8857C19.9655 10.7431 19.7037 10.526 19.4949 10.2344C19.2894 9.94271 19.1866 9.57481 19.1866 9.13068V4.35795H18.0332V3.36364H19.1866V1.53409H20.3599V3.36364H21.9906ZM25.0929 6.40625V11H23.9196V0.818182H25.0929V4.55682H25.1923C25.3713 4.16241 25.6397 3.84919 25.9977 3.61719C26.359 3.38187 26.8395 3.2642 27.4395 3.2642C28.2217 3.2642 28.8514 3.49953 29.3287 3.97017C29.8059 4.44081 30.0446 5.16667 30.0446 6.14773V11H28.8713V6.22727C28.8713 5.62074 28.7138 5.15175 28.399 4.82031C28.0874 4.48556 27.6549 4.31818 27.1014 4.31818C26.5214 4.31818 26.0408 4.50047 25.6596 4.86506C25.2818 5.22633 25.0929 5.74006 25.0929 6.40625ZM35.2933 11.1591C34.6039 11.1591 33.9991 10.995 33.4787 10.6669C32.9616 10.3388 32.5573 9.87973 32.2656 9.28977C31.9773 8.69981 31.8331 8.01042 31.8331 7.22159C31.8331 6.42614 31.9773 5.73177 32.2656 5.13849C32.5573 4.54522 32.9616 4.08452 33.4787 3.75639C33.9991 3.42827 34.6039 3.2642 35.2933 3.2642C35.9827 3.2642 36.5859 3.42827 37.103 3.75639C37.6233 4.08452 38.0277 4.54522 38.3161 5.13849C38.6077 5.73177 38.7536 6.42614 38.7536 7.22159C38.7536 8.01042 38.6077 8.69981 38.3161 9.28977C38.0277 9.87973 37.6233 10.3388 37.103 10.6669C36.5859 10.995 35.9827 11.1591 35.2933 11.1591ZM35.2933 10.1051C35.817 10.1051 36.2479 9.97088 36.5859 9.70241C36.924 9.43395 37.1742 9.08097 37.3366 8.64347C37.4991 8.20597 37.5803 7.73201 37.5803 7.22159C37.5803 6.71117 37.4991 6.23556 37.3366 5.79474C37.1742 5.35393 36.924 4.99763 36.5859 4.72585C36.2479 4.45407 35.817 4.31818 35.2933 4.31818C34.7696 4.31818 34.3388 4.45407 34.0007 4.72585C33.6626 4.99763 33.4124 5.35393 33.25 5.79474C33.0876 6.23556 33.0064 6.71117 33.0064 7.22159C33.0064 7.73201 33.0876 8.20597 33.25 8.64347C33.4124 9.08097 33.6626 9.43395 34.0007 9.70241C34.3388 9.97088 34.7696 10.1051 35.2933 10.1051ZM40.5446 11V3.36364H41.6781V4.51705H41.7576C41.8935 4.1392 42.1438 3.83262 42.5083 3.5973C42.8729 3.36198 43.2856 3.24432 43.7463 3.24432C43.9584 3.24432 44.144 3.26918 44.3031 3.31889C44.4622 3.36861 44.6014 3.43655 44.7207 3.52273L44.323 4.51705C44.2401 4.47396 44.1423 4.44081 44.0297 4.41761C43.9203 4.3911 43.7927 4.37784 43.6468 4.37784C43.09 4.37784 42.6293 4.54853 42.2647 4.88991C41.9002 5.22798 41.7179 5.65388 41.7179 6.16761V11H40.5446ZM46.7727 11.0795C46.5275 11.0795 46.317 10.9917 46.1413 10.8161C45.9657 10.6404 45.8778 10.4299 45.8778 10.1847C45.8778 9.93939 45.9657 9.72893 46.1413 9.55327C46.317 9.3776 46.5275 9.28977 46.7727 9.28977C47.018 9.28977 47.2285 9.3776 47.4041 9.55327C47.5798 9.72893 47.6676 9.93939 47.6676 10.1847C47.6676 10.4299 47.5798 10.6404 47.4041 10.8161C47.2285 10.9917 47.018 11.0795 46.7727 11.0795ZM46.7727 5.41193C46.5275 5.41193 46.317 5.3241 46.1413 5.14844C45.9657 4.97277 45.8778 4.76231 45.8778 4.51705C45.8778 4.27178 45.9657 4.06132 46.1413 3.88565C46.317 3.70999 46.5275 3.62216 46.7727 3.62216C47.018 3.62216 47.2285 3.70999 47.4041 3.88565C47.5798 4.06132 47.6676 4.27178 47.6676 4.51705C47.6676 4.76231 47.5798 4.97277 47.4041 5.14844C47.2285 5.3241 47.018 5.41193 46.7727 5.41193ZM53.8697 11V0.818182H57.31C58.1055 0.818182 58.7584 0.954072 59.2688 1.22585C59.7792 1.49432 60.1571 1.86387 60.4023 2.33452C60.6476 2.80516 60.7702 3.34044 60.7702 3.94034C60.7702 4.61648 60.6145 5.20644 60.3029 5.71023C59.9947 6.2107 59.5157 6.57197 58.8661 6.79403L61.168 11H59.7362L57.5884 7.01776C57.5056 7.02107 57.4194 7.02273 57.3299 7.02273H55.1026V11H53.8697ZM55.1026 5.90909H57.2901C58.1055 5.90909 58.6871 5.73343 59.0352 5.3821C59.3832 5.03078 59.5572 4.55019 59.5572 3.94034C59.5572 3.32718 59.3815 2.83665 59.0302 2.46875C58.6822 2.09754 58.0955 1.91193 57.2702 1.91193H55.1026V5.90909ZM63.3816 13.9631C63.1827 13.9631 63.0054 13.9465 62.8496 13.9134C62.6938 13.8835 62.5861 13.8537 62.5265 13.8239L62.8248 12.7898C63.2523 12.8991 63.6086 12.8958 63.8936 12.7798C64.182 12.6671 64.4289 12.3258 64.6344 11.7557L64.8929 11.0398L62.0691 3.36364H63.3418L65.4498 9.44886H65.5293L67.6373 3.36364H68.91L65.6287 12.233C65.1979 13.3864 64.4488 13.9631 63.3816 13.9631ZM72.7058 11.179C72.2219 11.179 71.7827 11.0878 71.3883 10.9055C70.9939 10.7199 70.6807 10.4531 70.4487 10.1051C70.2167 9.75379 70.1007 9.32955 70.1007 8.83239C70.1007 8.39489 70.1868 8.04025 70.3592 7.76847C70.5315 7.49337 70.7619 7.27794 71.0502 7.12216C71.3386 6.96638 71.6568 6.85038 72.0048 6.77415C72.3561 6.6946 72.7091 6.63163 73.0637 6.58523C73.5278 6.52557 73.9039 6.48082 74.1923 6.45099C74.484 6.41785 74.6961 6.36316 74.8287 6.28693C74.9645 6.2107 75.0325 6.07812 75.0325 5.8892V5.84943C75.0325 5.3589 74.8983 4.97775 74.6298 4.70597C74.3646 4.43419 73.9619 4.2983 73.4217 4.2983C72.8616 4.2983 72.4224 4.42093 72.1042 4.66619C71.786 4.91146 71.5623 5.1733 71.4331 5.4517L70.3194 5.05398C70.5183 4.58996 70.7834 4.22869 71.1149 3.97017C71.4496 3.70833 71.8142 3.52604 72.2086 3.4233C72.6064 3.31723 72.9975 3.2642 73.3819 3.2642C73.6272 3.2642 73.9089 3.29403 74.2271 3.35369C74.5486 3.41004 74.8585 3.5277 75.1568 3.70668C75.4584 3.88565 75.7086 4.15578 75.9075 4.51705C76.1064 4.87831 76.2058 5.36222 76.2058 5.96875V11H75.0325V9.96591H74.9728C74.8933 10.1316 74.7607 10.3089 74.5751 10.4979C74.3895 10.6868 74.1426 10.8475 73.8343 10.9801C73.5261 11.1127 73.1499 11.179 72.7058 11.179ZM72.8848 10.125C73.3488 10.125 73.7399 10.0339 74.0581 9.85156C74.3796 9.66927 74.6215 9.43395 74.7839 9.1456C74.9496 8.85724 75.0325 8.55398 75.0325 8.2358V7.16193C74.9828 7.22159 74.8734 7.27628 74.7044 7.32599C74.5386 7.3724 74.3464 7.41383 74.1277 7.45028C73.9122 7.48343 73.7018 7.51326 73.4963 7.53977C73.2941 7.56297 73.13 7.58286 73.0041 7.59943C72.6992 7.6392 72.4141 7.70384 72.149 7.79332C71.8871 7.8795 71.675 8.01042 71.5126 8.18608C71.3535 8.35843 71.274 8.59375 71.274 8.89205C71.274 9.29972 71.4248 9.60795 71.7264 9.81676C72.0313 10.0223 72.4174 10.125 72.8848 10.125ZM79.5206 6.40625V11H78.3473V3.36364H79.4808V4.55682H79.5803C79.7592 4.16903 80.031 3.85748 80.3956 3.62216C80.7602 3.38352 81.2308 3.2642 81.8075 3.2642C82.5798 3.2642 83.2029 3.50118 83.6768 3.97514C84.1541 4.4491 84.3928 5.1733 84.3928 6.14773V11H83.2195V6.22727C83.2195 5.62737 83.0637 5.16004 82.7521 4.82528C82.4406 4.48722 82.013 4.31818 81.4695 4.31818C80.9093 4.31818 80.4437 4.50047 80.0724 4.86506C79.7045 5.22633 79.5206 5.74006 79.5206 6.40625ZM91.051 0.818182L94.0737 9.3892H94.193L97.2157 0.818182H98.5083L94.7697 11H93.497L89.7583 0.818182H91.051ZM101.471 11.179C100.988 11.179 100.548 11.0878 100.154 10.9055C99.7595 10.7199 99.4463 10.4531 99.2143 10.1051C98.9823 9.75379 98.8663 9.32955 98.8663 8.83239C98.8663 8.39489 98.9525 8.04025 99.1248 7.76847C99.2972 7.49337 99.5275 7.27794 99.8159 7.12216C100.104 6.96638 100.422 6.85038 100.77 6.77415C101.122 6.6946 101.475 6.63163 101.829 6.58523C102.293 6.52557 102.67 6.48082 102.958 6.45099C103.25 6.41785 103.462 6.36316 103.594 6.28693C103.73 6.2107 103.798 6.07812 103.798 5.8892V5.84943C103.798 5.3589 103.664 4.97775 103.395 4.70597C103.13 4.43419 102.728 4.2983 102.187 4.2983C101.627 4.2983 101.188 4.42093 100.87 4.66619C100.552 4.91146 100.328 5.1733 100.199 5.4517L99.085 5.05398C99.2839 4.58996 99.5491 4.22869 99.8805 3.97017C100.215 3.70833 100.58 3.52604 100.974 3.4233C101.372 3.31723 101.763 3.2642 102.148 3.2642C102.393 3.2642 102.675 3.29403 102.993 3.35369C103.314 3.41004 103.624 3.5277 103.922 3.70668C104.224 3.88565 104.474 4.15578 104.673 4.51705C104.872 4.87831 104.971 5.36222 104.971 5.96875V11H103.798V9.96591H103.738C103.659 10.1316 103.526 10.3089 103.341 10.4979C103.155 10.6868 102.908 10.8475 102.6 10.9801C102.292 11.1127 101.916 11.179 101.471 11.179ZM101.65 10.125C102.114 10.125 102.506 10.0339 102.824 9.85156C103.145 9.66927 103.387 9.43395 103.55 9.1456C103.715 8.85724 103.798 8.55398 103.798 8.2358V7.16193C103.748 7.22159 103.639 7.27628 103.47 7.32599C103.304 7.3724 103.112 7.41383 102.893 7.45028C102.678 7.48343 102.467 7.51326 102.262 7.53977C102.06 7.56297 101.896 7.58286 101.77 7.59943C101.465 7.6392 101.18 7.70384 100.915 7.79332C100.653 7.8795 100.441 8.01042 100.278 8.18608C100.119 8.35843 100.04 8.59375 100.04 8.89205C100.04 9.29972 100.19 9.60795 100.492 9.81676C100.797 10.0223 101.183 10.125 101.65 10.125ZM108.286 6.40625V11H107.113V3.36364H108.246V4.55682H108.346C108.525 4.16903 108.797 3.85748 109.161 3.62216C109.526 3.38352 109.996 3.2642 110.573 3.2642C111.345 3.2642 111.969 3.50118 112.442 3.97514C112.92 4.4491 113.158 5.1733 113.158 6.14773V11H111.985V6.22727C111.985 5.62737 111.829 5.16004 111.518 4.82528C111.206 4.48722 110.779 4.31818 110.235 4.31818C109.675 4.31818 109.209 4.50047 108.838 4.86506C108.47 5.22633 108.286 5.74006 108.286 6.40625ZM122.541 11H119.399V0.818182H122.68C123.668 0.818182 124.513 1.02202 125.216 1.42969C125.918 1.83404 126.457 2.41572 126.831 3.17472C127.206 3.9304 127.393 4.83523 127.393 5.8892C127.393 6.94981 127.204 7.86293 126.827 8.62855C126.449 9.39086 125.898 9.97751 125.176 10.3885C124.453 10.7962 123.575 11 122.541 11ZM120.632 9.90625H122.461C123.724 9.90625 124.662 9.5483 125.275 8.83239C125.892 8.11316 126.2 7.1321 126.2 5.8892C126.2 4.65625 125.898 3.68513 125.295 2.97585C124.692 2.26657 123.794 1.91193 122.601 1.91193H120.632V9.90625ZM134.115 7.87784V3.36364H135.288V11H134.115V9.70739H134.035C133.856 10.0952 133.578 10.425 133.2 10.6967C132.822 10.9652 132.345 11.0994 131.768 11.0994C131.052 11.0994 130.462 10.8625 129.998 10.3885C129.534 9.91454 129.302 9.19034 129.302 8.21591V3.36364H130.476V8.13636C130.476 8.69318 130.631 9.13731 130.943 9.46875C131.258 9.80019 131.659 9.96591 132.146 9.96591C132.438 9.96591 132.734 9.89134 133.036 9.74219C133.341 9.59304 133.596 9.36435 133.802 9.05611C134.01 8.74787 134.115 8.35511 134.115 7.87784ZM137.218 11V10.1051L141.554 4.53693V4.45739H137.358V3.36364H143.065V4.2983L138.849 9.8267V9.90625H143.204V11H137.218ZM147.994 11.1591C147.259 11.1591 146.624 10.9967 146.09 10.6719C145.56 10.3438 145.151 9.88636 144.862 9.29972C144.577 8.70975 144.435 8.02367 144.435 7.24148C144.435 6.45928 144.577 5.76989 144.862 5.1733C145.151 4.57339 145.552 4.10606 146.065 3.77131C146.582 3.43324 147.186 3.2642 147.875 3.2642C148.273 3.2642 148.665 3.33049 149.053 3.46307C149.441 3.59564 149.794 3.81108 150.112 4.10938C150.43 4.40436 150.684 4.79545 150.873 5.28267C151.062 5.76989 151.156 6.36979 151.156 7.08239V7.57955H145.613C145.639 8.39489 145.87 9.01965 146.304 9.45384C146.741 9.88802 147.305 10.1051 147.994 10.1051C148.455 10.1051 148.851 10.0057 149.183 9.80682C149.514 9.60795 149.754 9.30966 149.903 8.91193L151.037 9.23011C150.858 9.80682 150.5 10.2725 149.963 10.6271C149.426 10.9818 148.77 11.1591 147.994 11.1591ZM145.613 6.56534H149.963C149.963 5.91903 149.774 5.38376 149.396 4.95952C149.018 4.53196 148.511 4.31818 147.875 4.31818C147.428 4.31818 147.04 4.42258 146.712 4.63139C146.384 4.8402 146.125 5.11695 145.936 5.46165C145.747 5.80303 145.639 6.17093 145.613 6.56534ZM152.941 11V3.36364H154.075V4.51705H154.154C154.29 4.1392 154.54 3.83262 154.905 3.5973C155.269 3.36198 155.682 3.24432 156.143 3.24432C156.355 3.24432 156.54 3.26918 156.7 3.31889C156.859 3.36861 156.998 3.43655 157.117 3.52273L156.719 4.51705C156.637 4.47396 156.539 4.44081 156.426 4.41761C156.317 4.3911 156.189 4.37784 156.043 4.37784C155.487 4.37784 155.026 4.54853 154.661 4.88991C154.297 5.22798 154.114 5.65388 154.114 6.16761V11H152.941Z" fill="white"/>
</svg>
