<svg width="120" height="12" viewBox="0 0 120 12" fill="none" xmlns="http://www.w3.org/2000/svg">
<path d="M1.65057 11H0.357955L4.09659 0.818182H5.36932L9.10795 11H7.81534L6.79119 8.11648H2.67472L1.65057 11ZM3.0625 7.02273H6.40341L4.77273 2.42898H4.69318L3.0625 7.02273ZM15.3473 7.87784V3.36364H16.5206V11H15.3473V9.70739H15.2678C15.0888 10.0952 14.8104 10.425 14.4325 10.6967C14.0547 10.9652 13.5774 11.0994 13.0007 11.0994C12.2848 11.0994 11.6948 10.8625 11.2308 10.3885C10.7668 9.91454 10.5348 9.19034 10.5348 8.21591V3.36364H11.7081V8.13636C11.7081 8.69318 11.8639 9.13731 12.1754 9.46875C12.4903 9.80019 12.8913 9.96591 13.3786 9.96591C13.6702 9.96591 13.9669 9.89134 14.2685 9.74219C14.5734 9.59304 14.8286 9.36435 15.0341 9.05611C15.2429 8.74787 15.3473 8.35511 15.3473 7.87784ZM21.9906 3.36364V4.35795H20.3599V8.8125C20.3599 9.14394 20.408 9.39252 20.5041 9.55824C20.6035 9.72064 20.7295 9.83002 20.8819 9.88636C21.0377 9.93939 21.2018 9.96591 21.3741 9.96591C21.5034 9.96591 21.6094 9.95928 21.6923 9.94602C21.7752 9.92945 21.8414 9.91619 21.8912 9.90625L22.1298 10.9602C22.0502 10.9901 21.9392 11.0199 21.7967 11.0497C21.6542 11.0829 21.4735 11.0994 21.2548 11.0994C20.9234 11.0994 20.5985 11.0282 20.2804 10.8857C19.9655 10.7431 19.7037 10.526 19.4949 10.2344C19.2894 9.94271 19.1866 9.57481 19.1866 9.13068V4.35795H18.0332V3.36364H19.1866V1.53409H20.3599V3.36364H21.9906ZM25.0929 6.40625V11H23.9196V0.818182H25.0929V4.55682H25.1923C25.3713 4.16241 25.6397 3.84919 25.9977 3.61719C26.359 3.38187 26.8395 3.2642 27.4395 3.2642C28.2217 3.2642 28.8514 3.49953 29.3287 3.97017C29.8059 4.44081 30.0446 5.16667 30.0446 6.14773V11H28.8713V6.22727C28.8713 5.62074 28.7138 5.15175 28.399 4.82031C28.0874 4.48556 27.6549 4.31818 27.1014 4.31818C26.5214 4.31818 26.0408 4.50047 25.6596 4.86506C25.2818 5.22633 25.0929 5.74006 25.0929 6.40625ZM35.2933 11.1591C34.6039 11.1591 33.9991 10.995 33.4787 10.6669C32.9616 10.3388 32.5573 9.87973 32.2656 9.28977C31.9773 8.69981 31.8331 8.01042 31.8331 7.22159C31.8331 6.42614 31.9773 5.73177 32.2656 5.13849C32.5573 4.54522 32.9616 4.08452 33.4787 3.75639C33.9991 3.42827 34.6039 3.2642 35.2933 3.2642C35.9827 3.2642 36.5859 3.42827 37.103 3.75639C37.6233 4.08452 38.0277 4.54522 38.3161 5.13849C38.6077 5.73177 38.7536 6.42614 38.7536 7.22159C38.7536 8.01042 38.6077 8.69981 38.3161 9.28977C38.0277 9.87973 37.6233 10.3388 37.103 10.6669C36.5859 10.995 35.9827 11.1591 35.2933 11.1591ZM35.2933 10.1051C35.817 10.1051 36.2479 9.97088 36.5859 9.70241C36.924 9.43395 37.1742 9.08097 37.3366 8.64347C37.4991 8.20597 37.5803 7.73201 37.5803 7.22159C37.5803 6.71117 37.4991 6.23556 37.3366 5.79474C37.1742 5.35393 36.924 4.99763 36.5859 4.72585C36.2479 4.45407 35.817 4.31818 35.2933 4.31818C34.7696 4.31818 34.3388 4.45407 34.0007 4.72585C33.6626 4.99763 33.4124 5.35393 33.25 5.79474C33.0876 6.23556 33.0064 6.71117 33.0064 7.22159C33.0064 7.73201 33.0876 8.20597 33.25 8.64347C33.4124 9.08097 33.6626 9.43395 34.0007 9.70241C34.3388 9.97088 34.7696 10.1051 35.2933 10.1051ZM40.5446 11V3.36364H41.6781V4.51705H41.7576C41.8935 4.1392 42.1438 3.83262 42.5083 3.5973C42.8729 3.36198 43.2856 3.24432 43.7463 3.24432C43.9584 3.24432 44.144 3.26918 44.3031 3.31889C44.4622 3.36861 44.6014 3.43655 44.7207 3.52273L44.323 4.51705C44.2401 4.47396 44.1423 4.44081 44.0297 4.41761C43.9203 4.3911 43.7927 4.37784 43.6468 4.37784C43.09 4.37784 42.6293 4.54853 42.2647 4.88991C41.9002 5.22798 41.7179 5.65388 41.7179 6.16761V11H40.5446ZM46.7727 11.0795C46.5275 11.0795 46.317 10.9917 46.1413 10.8161C45.9657 10.6404 45.8778 10.4299 45.8778 10.1847C45.8778 9.93939 45.9657 9.72893 46.1413 9.55327C46.317 9.3776 46.5275 9.28977 46.7727 9.28977C47.018 9.28977 47.2285 9.3776 47.4041 9.55327C47.5798 9.72893 47.6676 9.93939 47.6676 10.1847C47.6676 10.4299 47.5798 10.6404 47.4041 10.8161C47.2285 10.9917 47.018 11.0795 46.7727 11.0795ZM46.7727 5.41193C46.5275 5.41193 46.317 5.3241 46.1413 5.14844C45.9657 4.97277 45.8778 4.76231 45.8778 4.51705C45.8778 4.27178 45.9657 4.06132 46.1413 3.88565C46.317 3.70999 46.5275 3.62216 46.7727 3.62216C47.018 3.62216 47.2285 3.70999 47.4041 3.88565C47.5798 4.06132 47.6676 4.27178 47.6676 4.51705C47.6676 4.76231 47.5798 4.97277 47.4041 5.14844C47.2285 5.3241 47.018 5.41193 46.7727 5.41193ZM57.0117 11H53.8697V0.818182H57.1509C58.1386 0.818182 58.9838 1.02202 59.6864 1.42969C60.3891 1.83404 60.9277 2.41572 61.3022 3.17472C61.6767 3.9304 61.864 4.83523 61.864 5.8892C61.864 6.94981 61.6751 7.86293 61.2972 8.62855C60.9194 9.39086 60.3692 9.97751 59.6467 10.3885C58.9241 10.7962 58.0458 11 57.0117 11ZM55.1026 9.90625H56.9322C58.195 9.90625 59.1329 9.5483 59.7461 8.83239C60.3626 8.11316 60.6708 7.1321 60.6708 5.8892C60.6708 4.65625 60.3692 3.68513 59.766 2.97585C59.1628 2.26657 58.2646 1.91193 57.0714 1.91193H55.1026V9.90625ZM66.0202 11.179C65.5363 11.179 65.0972 11.0878 64.7028 10.9055C64.3084 10.7199 63.9951 10.4531 63.7631 10.1051C63.5311 9.75379 63.4151 9.32955 63.4151 8.83239C63.4151 8.39489 63.5013 8.04025 63.6737 7.76847C63.846 7.49337 64.0763 7.27794 64.3647 7.12216C64.6531 6.96638 64.9712 6.85038 65.3192 6.77415C65.6706 6.6946 66.0236 6.63163 66.3782 6.58523C66.8422 6.52557 67.2184 6.48082 67.5067 6.45099C67.7984 6.41785 68.0105 6.36316 68.1431 6.28693C68.279 6.2107 68.3469 6.07812 68.3469 5.8892V5.84943C68.3469 5.3589 68.2127 4.97775 67.9442 4.70597C67.6791 4.43419 67.2764 4.2983 66.7362 4.2983C66.176 4.2983 65.7369 4.42093 65.4187 4.66619C65.1005 4.91146 64.8768 5.1733 64.7475 5.4517L63.6339 5.05398C63.8327 4.58996 64.0979 4.22869 64.4293 3.97017C64.7641 3.70833 65.1287 3.52604 65.5231 3.4233C65.9208 3.31723 66.3119 3.2642 66.6964 3.2642C66.9416 3.2642 67.2234 3.29403 67.5415 3.35369C67.863 3.41004 68.1729 3.5277 68.4712 3.70668C68.7728 3.88565 69.0231 4.15578 69.2219 4.51705C69.4208 4.87831 69.5202 5.36222 69.5202 5.96875V11H68.3469V9.96591H68.2873C68.2077 10.1316 68.0752 10.3089 67.8896 10.4979C67.704 10.6868 67.457 10.8475 67.1488 10.9801C66.8406 11.1127 66.4644 11.179 66.0202 11.179ZM66.1992 10.125C66.6632 10.125 67.0543 10.0339 67.3725 9.85156C67.694 9.66927 67.936 9.43395 68.0984 9.1456C68.2641 8.85724 68.3469 8.55398 68.3469 8.2358V7.16193C68.2972 7.22159 68.1879 7.27628 68.0188 7.32599C67.8531 7.3724 67.6609 7.41383 67.4421 7.45028C67.2267 7.48343 67.0162 7.51326 66.8107 7.53977C66.6085 7.56297 66.4445 7.58286 66.3185 7.59943C66.0136 7.6392 65.7286 7.70384 65.4634 7.79332C65.2016 7.8795 64.9895 8.01042 64.8271 8.18608C64.668 8.35843 64.5884 8.59375 64.5884 8.89205C64.5884 9.29972 64.7392 9.60795 65.0408 9.81676C65.3458 10.0223 65.7319 10.125 66.1992 10.125ZM77.6326 3.36364L74.8088 11H73.6156L70.7917 3.36364H72.0645L74.1724 9.44886H74.252L76.3599 3.36364H77.6326ZM79.6598 11V3.36364H80.8331V11H79.6598ZM80.2564 2.09091C80.0277 2.09091 79.8305 2.01302 79.6648 1.85724C79.5024 1.70147 79.4212 1.5142 79.4212 1.29545C79.4212 1.0767 79.5024 0.889441 79.6648 0.733664C79.8305 0.577888 80.0277 0.5 80.2564 0.5C80.4851 0.5 80.6806 0.577888 80.843 0.733664C81.0088 0.889441 81.0916 1.0767 81.0916 1.29545C81.0916 1.5142 81.0088 1.70147 80.843 1.85724C80.6806 2.01302 80.4851 2.09091 80.2564 2.09091ZM85.8656 11.1591C85.2292 11.1591 84.6674 10.9983 84.1802 10.6768C83.693 10.352 83.3118 9.89465 83.0368 9.30469C82.7617 8.71141 82.6241 8.01042 82.6241 7.2017C82.6241 6.39962 82.7617 5.7036 83.0368 5.11364C83.3118 4.52367 83.6947 4.06794 84.1852 3.74645C84.6757 3.42495 85.2425 3.2642 85.8855 3.2642C86.3826 3.2642 86.7754 3.34706 87.0637 3.51278C87.3554 3.67519 87.5775 3.8608 87.7299 4.0696C87.8857 4.27509 88.0067 4.44413 88.0929 4.5767H88.1923V0.818182H89.3656V11H88.2321V9.8267H88.0929C88.0067 9.96591 87.8841 10.1416 87.725 10.3537C87.5659 10.5625 87.3388 10.7498 87.0439 10.9155C86.7489 11.0779 86.3561 11.1591 85.8656 11.1591ZM86.0247 10.1051C86.7306 10.1051 87.2709 9.83499 87.6454 9.29474C88.0233 8.75118 88.2122 8.04687 88.2122 7.18182C88.2122 6.3267 88.0266 5.63565 87.6554 5.10866C87.2842 4.58168 86.7406 4.31818 86.0247 4.31818C85.5275 4.31818 85.1132 4.44579 84.7818 4.70099C84.4537 4.95289 84.2067 5.29593 84.041 5.73011C83.8786 6.16098 83.7974 6.64489 83.7974 7.18182C83.7974 7.72538 83.8803 8.21922 84.046 8.66335C84.215 9.10417 84.4636 9.45549 84.7917 9.71733C85.1232 9.97585 85.5342 10.1051 86.0247 10.1051ZM95.774 11V0.818182H101.919V1.91193H97.0069V5.35227H101.601V6.44602H97.0069V9.90625H101.998V11H95.774ZM105.155 0.818182V11H103.982V0.818182H105.155ZM108.478 0.818182V11H107.304V0.818182H108.478ZM110.627 11V3.36364H111.8V11H110.627ZM111.223 2.09091C110.994 2.09091 110.797 2.01302 110.632 1.85724C110.469 1.70147 110.388 1.5142 110.388 1.29545C110.388 1.0767 110.469 0.889441 110.632 0.733664C110.797 0.577888 110.994 0.5 111.223 0.5C111.452 0.5 111.647 0.577888 111.81 0.733664C111.976 0.889441 112.058 1.0767 112.058 1.29545C112.058 1.5142 111.976 1.70147 111.81 1.85724C111.647 2.01302 111.452 2.09091 111.223 2.09091ZM119.358 5.07386L118.304 5.37216C118.201 5.10701 118.029 4.85843 117.787 4.62642C117.545 4.39441 117.167 4.27841 116.653 4.27841C116.186 4.27841 115.797 4.38613 115.485 4.60156C115.177 4.81368 115.023 5.08381 115.023 5.41193C115.023 5.7036 115.129 5.93395 115.341 6.10298C115.553 6.27202 115.884 6.41288 116.335 6.52557L117.469 6.80398C118.821 7.13542 119.497 7.82481 119.497 8.87216C119.497 9.30966 119.371 9.70076 119.119 10.0455C118.871 10.3902 118.523 10.6619 118.075 10.8608C117.628 11.0597 117.107 11.1591 116.514 11.1591C115.735 11.1591 115.091 10.9901 114.58 10.652C114.07 10.3139 113.747 9.82008 113.611 9.17045L114.724 8.89205C114.933 9.71402 115.523 10.125 116.494 10.125C117.041 10.125 117.475 10.009 117.797 9.77699C118.122 9.54167 118.284 9.25994 118.284 8.93182C118.284 8.39157 117.906 8.03362 117.151 7.85795L115.878 7.55966C115.179 7.39394 114.665 7.13707 114.337 6.78906C114.012 6.43774 113.849 5.99858 113.849 5.47159C113.849 5.04072 113.97 4.65956 114.212 4.32812C114.458 3.99669 114.791 3.73651 115.212 3.54758C115.636 3.35866 116.116 3.2642 116.653 3.2642C117.409 3.2642 118.002 3.42992 118.433 3.76136C118.867 4.0928 119.176 4.5303 119.358 5.07386Z" fill="white"/>
</svg>
