<svg width="236" height="51" viewBox="0 0 236 51" fill="none" xmlns="http://www.w3.org/2000/svg">
<path d="M18.0341 10.2727C18.0341 12.2159 17.6563 13.8551 16.9006 15.1903C16.1449 16.5199 15.125 17.5284 13.8409 18.2159C12.5568 18.8977 11.125 19.2386 9.54545 19.2386C7.95455 19.2386 6.51705 18.8949 5.23295 18.2074C3.95455 17.5142 2.9375 16.5028 2.18182 15.1733C1.43182 13.8381 1.05682 12.2045 1.05682 10.2727C1.05682 8.32955 1.43182 6.69318 2.18182 5.36364C2.9375 4.02841 3.95455 3.01989 5.23295 2.33807C6.51705 1.65057 7.95455 1.30682 9.54545 1.30682C11.125 1.30682 12.5568 1.65057 13.8409 2.33807C15.125 3.01989 16.1449 4.02841 16.9006 5.36364C17.6563 6.69318 18.0341 8.32955 18.0341 10.2727ZM13.1591 10.2727C13.1591 8.70455 12.8494 7.50568 12.2301 6.67614C11.6165 5.84659 10.7216 5.43182 9.54545 5.43182C8.36932 5.43182 7.47159 5.84659 6.85227 6.67614C6.23864 7.50568 5.93182 8.70455 5.93182 10.2727C5.93182 11.8409 6.23864 13.0398 6.85227 13.8693C7.47159 14.6989 8.36932 15.1136 9.54545 15.1136C10.7216 15.1136 11.6165 14.6989 12.2301 13.8693C12.8494 13.0398 13.1591 11.8409 13.1591 10.2727ZM24.9993 1.54545V19H20.2947V1.54545H24.9993ZM32.1349 19.1705C31.2031 19.1705 30.3452 18.9261 29.5611 18.4375C28.7827 17.9489 28.1577 17.2074 27.6861 16.2131C27.2202 15.2187 26.9872 13.9659 26.9872 12.4545C26.9872 10.875 27.2315 9.59091 27.7202 8.60227C28.2145 7.61364 28.8509 6.8892 29.6293 6.42898C30.4134 5.96875 31.2372 5.73864 32.1009 5.73864C33.0724 5.73864 33.8651 5.98295 34.4787 6.47159C35.0923 6.95455 35.527 7.52841 35.7827 8.19318H35.8509V1.54545H40.5554V19H35.8849V16.8523H35.7827C35.5099 17.517 35.0639 18.071 34.4446 18.5142C33.8253 18.9517 33.0554 19.1705 32.1349 19.1705ZM33.8736 15.5568C34.5213 15.5568 35.0298 15.2784 35.3991 14.7216C35.7685 14.1648 35.9531 13.4091 35.9531 12.4545C35.9531 11.483 35.7685 10.7244 35.3991 10.179C35.0298 9.62784 34.5213 9.35227 33.8736 9.35227C33.2259 9.35227 32.723 9.62784 32.3651 10.179C32.0071 10.7244 31.8281 11.483 31.8281 12.4545C31.8281 13.4261 32.0071 14.1875 32.3651 14.7386C32.723 15.2841 33.2259 15.5568 33.8736 15.5568ZM47.5781 19V1.54545H59.8509V5.36364H52.3168V8.36364H59.1009V12.1818H52.3168V19H47.5781ZM65.0284 19.2045C63.7784 19.2045 62.7557 18.8949 61.9602 18.2756C61.1648 17.6506 60.767 16.6875 60.767 15.3864C60.767 14.4261 60.9801 13.6534 61.4062 13.0682C61.8324 12.483 62.4091 12.0455 63.1364 11.7557C63.8636 11.4659 64.6761 11.2898 65.5739 11.2273C66.6761 11.1477 67.4574 11.0312 67.9176 10.8778C68.3778 10.7187 68.608 10.4489 68.608 10.0682V10.0341C68.608 9.69318 68.4773 9.43182 68.2159 9.25C67.9545 9.06818 67.6193 8.97727 67.2102 8.97727C66.7614 8.97727 66.3949 9.0767 66.1108 9.27557C65.8324 9.46875 65.6648 9.76705 65.608 10.1705H61.2784C61.3352 9.375 61.5881 8.64205 62.0369 7.97159C62.4915 7.29545 63.1534 6.75568 64.0227 6.35227C64.892 5.94318 65.9773 5.73864 67.2784 5.73864C68.5284 5.73864 69.6023 5.92898 70.5 6.30966C71.4034 6.69034 72.0966 7.20454 72.5795 7.85227C73.0682 8.5 73.3125 9.22727 73.3125 10.0341V19H68.9148V17.1591H68.8125C68.4148 17.892 67.8977 18.4176 67.2614 18.7358C66.625 19.0483 65.8807 19.2045 65.0284 19.2045ZM66.5625 16.2386C67.0966 16.2386 67.5767 16.0767 68.0028 15.7528C68.429 15.4233 68.642 14.9602 68.642 14.3636V13.2727C68.1761 13.4659 67.5511 13.625 66.767 13.75C66.2216 13.8352 65.8239 14 65.5739 14.2443C65.3239 14.4886 65.1989 14.7784 65.1989 15.1136C65.1989 15.4773 65.3267 15.7557 65.5824 15.9489C65.8381 16.142 66.1648 16.2386 66.5625 16.2386ZM75.5604 19V5.90909H80.2649V19H75.5604ZM77.9126 4.54545C77.2763 4.54545 76.7308 4.33523 76.2763 3.91477C75.8217 3.49432 75.5945 2.98864 75.5945 2.39773C75.5945 1.80682 75.8217 1.30114 76.2763 0.880681C76.7308 0.460227 77.2763 0.25 77.9126 0.25C78.5547 0.25 79.1001 0.460227 79.549 0.880681C80.0036 1.30114 80.2308 1.80682 80.2308 2.39773C80.2308 2.98864 80.0036 3.49432 79.549 3.91477C79.1001 4.33523 78.5547 4.54545 77.9126 4.54545ZM90.4688 5.90909V9.31818H88.2188V14.7898C88.2188 15.3352 88.5142 15.608 89.1051 15.608C89.2472 15.608 89.4119 15.5909 89.5994 15.5568C89.7926 15.5227 89.9347 15.4943 90.0256 15.4716L90.7074 18.7784C90.4972 18.8409 90.196 18.9176 89.804 19.0085C89.4176 19.0994 88.9574 19.1591 88.4233 19.1875C86.7983 19.2784 85.5682 18.9858 84.733 18.3097C83.9034 17.6278 83.4972 16.6023 83.5142 15.233V9.31818H81.8438V5.90909H83.5142V2.77273H88.2188V5.90909H90.4688ZM97.3743 11.6364V19H92.6697V1.54545H97.2038V8.39773H97.3402C97.6357 7.5625 98.1271 6.91193 98.8146 6.44602C99.5021 5.97443 100.329 5.73864 101.295 5.73864C102.221 5.73864 103.025 5.94886 103.707 6.36932C104.394 6.78977 104.925 7.36932 105.3 8.10795C105.681 8.84659 105.869 9.69318 105.863 10.6477V19H101.158V11.6364C101.164 10.9886 101.002 10.4801 100.673 10.1108C100.349 9.74148 99.8857 9.55682 99.2834 9.55682C98.7095 9.55682 98.2493 9.74148 97.9027 10.1108C97.5561 10.4801 97.38 10.9886 97.3743 11.6364ZM116.231 5.90909V9.31818H113.844V19H109.14V9.31818H107.469V5.90909H109.14V5.53409C109.14 3.91477 109.566 2.71023 110.418 1.92045C111.271 1.125 112.413 0.727272 113.844 0.727272C114.441 0.727272 115.021 0.772727 115.583 0.863636C116.151 0.954545 116.572 1.03409 116.844 1.10227L116.163 4.47727C115.992 4.42614 115.793 4.38636 115.566 4.35795C115.339 4.32386 115.14 4.30682 114.969 4.30682C114.526 4.30682 114.228 4.40057 114.075 4.58807C113.921 4.77557 113.844 5.02273 113.844 5.32954V5.90909H116.231ZM126.518 13.2727V5.90909H131.222V19H126.756V16.5114H126.62C126.336 17.3466 125.839 18 125.129 18.4716C124.418 18.9375 123.575 19.1705 122.597 19.1705C121.683 19.1705 120.881 18.9602 120.194 18.5398C119.512 18.1193 118.981 17.5398 118.6 16.8011C118.225 16.0625 118.035 15.2159 118.029 14.2614V5.90909H122.734V13.2727C122.739 13.9205 122.904 14.429 123.228 14.7983C123.558 15.1676 124.018 15.3523 124.609 15.3523C125.194 15.3523 125.66 15.1676 126.006 14.7983C126.353 14.429 126.523 13.9205 126.518 13.2727ZM138.32 1.54545V19H133.615V1.54545H138.32ZM156.765 7.30682C156.623 6.71023 156.31 6.25 155.827 5.92614C155.344 5.59659 154.731 5.43182 153.987 5.43182C152.793 5.43182 151.87 5.85511 151.217 6.7017C150.563 7.5483 150.237 8.72727 150.237 10.2386C150.237 11.7727 150.549 12.9687 151.174 13.8267C151.799 14.6847 152.725 15.1136 153.952 15.1136C155.015 15.1136 155.813 14.8892 156.347 14.4403C156.887 13.9915 157.168 13.3864 157.191 12.625H154.021V9.25H161.759V11.6705C161.759 13.2614 161.421 14.6222 160.745 15.7528C160.075 16.8778 159.148 17.7415 157.967 18.3438C156.79 18.9403 155.441 19.2386 153.918 19.2386C152.219 19.2386 150.728 18.8778 149.444 18.1562C148.16 17.4347 147.157 16.4062 146.435 15.071C145.719 13.7358 145.362 12.1477 145.362 10.3068C145.362 8.38636 145.745 6.75568 146.512 5.41477C147.279 4.07386 148.308 3.05398 149.597 2.35511C150.887 1.65625 152.316 1.30682 153.884 1.30682C155.259 1.30682 156.504 1.56534 157.617 2.08239C158.731 2.59375 159.634 3.30114 160.327 4.20454C161.026 5.10227 161.435 6.13636 161.555 7.30682H156.765ZM170.31 19.2386C168.213 19.2386 166.563 18.6449 165.358 17.4574C164.159 16.2642 163.56 14.608 163.56 12.4886C163.56 11.1364 163.832 9.95455 164.378 8.94318C164.923 7.93182 165.693 7.14489 166.688 6.58239C167.682 6.01989 168.855 5.73864 170.207 5.73864C171.526 5.73864 172.67 6.00852 173.642 6.54829C174.619 7.08807 175.375 7.8608 175.909 8.86648C176.449 9.86648 176.719 11.0625 176.719 12.4545V13.5455H168.196V13.75C168.196 14.3807 168.389 14.9034 168.776 15.3182C169.168 15.7273 169.713 15.9318 170.412 15.9318C170.895 15.9318 171.315 15.8324 171.673 15.6335C172.037 15.429 172.287 15.142 172.423 14.7727H176.719C176.497 16.1364 175.827 17.2216 174.707 18.0284C173.594 18.8352 172.128 19.2386 170.31 19.2386ZM168.196 10.9545H172.389C172.378 10.392 172.173 9.93466 171.776 9.58239C171.384 9.22443 170.895 9.04545 170.31 9.04545C169.736 9.04545 169.241 9.22159 168.827 9.57386C168.418 9.92614 168.207 10.3864 168.196 10.9545ZM180.98 24.1136C180.355 24.1136 179.824 24.054 179.386 23.9347C178.955 23.821 178.599 23.7102 178.321 23.6023L179.344 20.0909C179.923 20.2955 180.418 20.3835 180.827 20.3551C181.236 20.3324 181.537 20.1534 181.73 19.8182L181.832 19.5795L177.23 5.90909H182.139L184.253 14.9773H184.389L186.537 5.90909H191.48L186.707 20.0909C186.469 20.8068 186.102 21.4688 185.608 22.0767C185.119 22.6903 184.491 23.1818 183.724 23.5511C182.963 23.9261 182.048 24.1136 180.98 24.1136ZM204.784 10.1705H200.455C200.42 9.76705 200.233 9.4517 199.892 9.22443C199.551 8.99148 199.148 8.875 198.682 8.875C198.278 8.875 197.932 8.94886 197.642 9.09659C197.352 9.24432 197.21 9.45455 197.216 9.72727C197.21 9.92045 197.293 10.0994 197.463 10.2642C197.639 10.429 197.977 10.5568 198.477 10.6477L201.136 11.125C203.778 11.6023 205.108 12.7841 205.125 14.6705C205.119 15.6023 204.841 16.4119 204.29 17.0994C203.744 17.7812 202.997 18.3097 202.048 18.6847C201.105 19.054 200.028 19.2386 198.818 19.2386C196.818 19.2386 195.253 18.8295 194.122 18.0114C192.997 17.1932 192.369 16.1136 192.239 14.7727H196.909C196.972 15.1875 197.176 15.5085 197.523 15.7358C197.875 15.9574 198.318 16.0682 198.852 16.0682C199.284 16.0682 199.639 15.9943 199.918 15.8466C200.202 15.6989 200.347 15.4886 200.352 15.2159C200.335 14.7614 199.835 14.4432 198.852 14.2614L196.534 13.8523C193.858 13.3807 192.528 12.0966 192.545 10C192.54 8.63636 193.077 7.58523 194.156 6.84659C195.236 6.10795 196.71 5.73864 198.58 5.73864C200.472 5.73864 201.963 6.13068 203.054 6.91477C204.151 7.69886 204.727 8.78409 204.784 10.1705ZM213.2 19.2386C211.104 19.2386 209.453 18.6449 208.249 17.4574C207.05 16.2642 206.45 14.608 206.45 12.4886C206.45 11.1364 206.723 9.95455 207.268 8.94318C207.814 7.93182 208.584 7.14489 209.578 6.58239C210.572 6.01989 211.746 5.73864 213.098 5.73864C214.416 5.73864 215.561 6.00852 216.533 6.54829C217.51 7.08807 218.266 7.8608 218.8 8.86648C219.339 9.86648 219.609 11.0625 219.609 12.4545V13.5455H211.087V13.75C211.087 14.3807 211.28 14.9034 211.666 15.3182C212.058 15.7273 212.604 15.9318 213.303 15.9318C213.786 15.9318 214.206 15.8324 214.564 15.6335C214.928 15.429 215.178 15.142 215.314 14.7727H219.609C219.388 16.1364 218.717 17.2216 217.598 18.0284C216.484 18.8352 215.018 19.2386 213.2 19.2386ZM211.087 10.9545H215.28C215.268 10.392 215.064 9.93466 214.666 9.58239C214.274 9.22443 213.786 9.04545 213.2 9.04545C212.626 9.04545 212.132 9.22159 211.717 9.57386C211.308 9.92614 211.098 10.3864 211.087 10.9545ZM221.529 19V5.90909H226.097V8.39773H226.234C226.478 7.47727 226.859 6.80398 227.376 6.37784C227.893 5.9517 228.501 5.73864 229.2 5.73864C229.54 5.73864 229.873 5.78125 230.197 5.86648C230.521 5.9517 230.813 6.06818 231.075 6.21591L229.711 10.0682C229.518 9.97727 229.316 9.89773 229.106 9.82955C228.896 9.76136 228.665 9.72727 228.415 9.72727C227.83 9.72727 227.322 9.9517 226.89 10.4006C226.458 10.8437 226.239 11.4375 226.234 12.1818V19H221.529ZM235.613 16.6136L235.545 17.5682C235.488 18.3864 235.352 19.1705 235.136 19.9205C234.925 20.6705 234.701 21.3352 234.462 21.9148C234.229 22.4943 234.045 22.9432 233.908 23.2614H231.011C231.102 22.9432 231.229 22.483 231.394 21.8807C231.565 21.2841 231.718 20.608 231.854 19.8523C231.996 19.1023 232.067 18.3409 232.067 17.5682V16.6136H235.613ZM5.55682 45L0.409091 27.5455H5.69318L8.07955 38.2841H8.21591L11.0455 27.5455H15.2045L18.0341 38.3182H18.1705L20.5568 27.5455H25.8409L20.6932 45H16.1591L13.1932 35.25H13.0568L10.0909 45H5.55682ZM30.1364 50.1136C29.5114 50.1136 28.9801 50.054 28.5426 49.9347C28.1108 49.821 27.7557 49.7102 27.4773 49.6023L28.5 46.0909C29.0795 46.2955 29.5739 46.3835 29.983 46.3551C30.392 46.3324 30.6932 46.1534 30.8864 45.8182L30.9886 45.5795L26.3864 31.9091H31.2955L33.4091 40.9773H33.5455L35.6932 31.9091H40.6364L35.8636 46.0909C35.625 46.8068 35.2585 47.4688 34.7642 48.0767C34.2756 48.6903 33.6477 49.1818 32.8807 49.5511C32.1193 49.9261 31.2045 50.1136 30.1364 50.1136ZM47.8828 45.2386C46.4624 45.2386 45.2464 44.9574 44.2351 44.3949C43.2237 43.8267 42.4482 43.0369 41.9084 42.0256C41.3686 41.0085 41.0987 39.8295 41.0987 38.4886C41.0987 37.1477 41.3686 35.9716 41.9084 34.9602C42.4482 33.9432 43.2237 33.1534 44.2351 32.5909C45.2464 32.0227 46.4624 31.7386 47.8828 31.7386C49.3033 31.7386 50.5192 32.0227 51.5305 32.5909C52.5419 33.1534 53.3175 33.9432 53.8572 34.9602C54.397 35.9716 54.6669 37.1477 54.6669 38.4886C54.6669 39.8295 54.397 41.0085 53.8572 42.0256C53.3175 43.0369 52.5419 43.8267 51.5305 44.3949C50.5192 44.9574 49.3033 45.2386 47.8828 45.2386ZM47.9169 41.7614C48.5135 41.7614 48.9851 41.4687 49.3317 40.8835C49.6839 40.2926 49.8601 39.483 49.8601 38.4545C49.8601 37.4261 49.6839 36.6193 49.3317 36.0341C48.9851 35.4432 48.5135 35.1477 47.9169 35.1477C47.2862 35.1477 46.7919 35.4432 46.4339 36.0341C46.0817 36.6193 45.9055 37.4261 45.9055 38.4545C45.9055 39.483 46.0817 40.2926 46.4339 40.8835C46.7919 41.4687 47.2862 41.7614 47.9169 41.7614ZM56.576 45V31.9091H61.0419V34.3977H61.1783C61.451 33.5795 61.9169 32.9318 62.576 32.4545C63.2351 31.9773 64.0192 31.7386 64.9283 31.7386C65.8487 31.7386 66.6413 31.983 67.3061 32.4716C67.9709 32.9545 68.3714 33.5966 68.5078 34.3977H68.6442C68.8658 33.5966 69.3374 32.9545 70.0589 32.4716C70.7805 31.983 71.6271 31.7386 72.5987 31.7386C73.8544 31.7386 74.8714 32.142 75.6499 32.9489C76.4339 33.7557 76.826 34.8295 76.826 36.1705V45H72.1214V37.3636C72.1214 36.7898 71.9766 36.3409 71.6868 36.017C71.397 35.6875 71.0078 35.5227 70.5192 35.5227C70.0362 35.5227 69.6527 35.6875 69.3686 36.017C69.0902 36.3409 68.951 36.7898 68.951 37.3636V45H64.451V37.3636C64.451 36.7898 64.3061 36.3409 64.0163 36.017C63.7266 35.6875 63.3374 35.5227 62.8487 35.5227C62.3658 35.5227 61.9822 35.6875 61.6982 36.017C61.4197 36.3409 61.2805 36.7898 61.2805 37.3636V45H56.576ZM79.1463 45V31.9091H83.8509V45H79.1463ZM81.4986 30.5455C80.8622 30.5455 80.3168 30.3352 79.8622 29.9148C79.4077 29.4943 79.1804 28.9886 79.1804 28.3977C79.1804 27.8068 79.4077 27.3011 79.8622 26.8807C80.3168 26.4602 80.8622 26.25 81.4986 26.25C82.1406 26.25 82.6861 26.4602 83.1349 26.8807C83.5895 27.3011 83.8168 27.8068 83.8168 28.3977C83.8168 28.9886 83.5895 29.4943 83.1349 29.9148C82.6861 30.3352 82.1406 30.5455 81.4986 30.5455ZM90.9524 37.6364V45H86.2479V31.9091H90.7138V34.3977H90.8501C91.1342 33.5682 91.6342 32.9176 92.3501 32.446C93.0717 31.9744 93.9126 31.7386 94.8729 31.7386C95.799 31.7386 96.603 31.9517 97.2848 32.3778C97.9723 32.7983 98.5036 33.3778 98.8786 34.1165C99.2592 34.8551 99.4467 35.6989 99.4411 36.6477V45H94.7365V37.6364C94.7422 36.9886 94.5774 36.4801 94.2422 36.1108C93.9126 35.7415 93.4524 35.5568 92.8615 35.5568C92.2763 35.5568 91.8132 35.7415 91.4723 36.1108C91.1314 36.4801 90.9581 36.9886 90.9524 37.6364ZM108.07 50.0455C106.758 50.0455 105.633 49.8608 104.695 49.4915C103.763 49.1278 103.039 48.6278 102.522 47.9915C102.011 47.3608 101.724 46.6477 101.661 45.8523H106.195C106.263 46.1989 106.479 46.4545 106.843 46.6193C107.212 46.7898 107.667 46.875 108.207 46.875C108.815 46.875 109.317 46.733 109.715 46.4489C110.119 46.1648 110.32 45.6705 110.32 44.9659V42.75H110.184C109.928 43.4148 109.471 43.929 108.812 44.2926C108.158 44.6506 107.388 44.8295 106.502 44.8295C105.57 44.8295 104.712 44.6136 103.928 44.1818C103.15 43.75 102.525 43.0653 102.053 42.1278C101.587 41.1903 101.354 39.9659 101.354 38.4545C101.354 36.875 101.599 35.5909 102.087 34.6023C102.582 33.6136 103.218 32.8892 103.996 32.429C104.781 31.9688 105.604 31.7386 106.468 31.7386C107.44 31.7386 108.232 31.983 108.846 32.4716C109.46 32.9545 109.894 33.5284 110.15 34.1932H110.252V31.9091H114.957V44.9659C114.957 46.0284 114.67 46.9375 114.096 47.6932C113.528 48.4545 112.727 49.0369 111.692 49.4403C110.658 49.8438 109.451 50.0455 108.07 50.0455ZM108.241 41.4886C108.888 41.4886 109.397 41.2216 109.766 40.6875C110.136 40.1534 110.32 39.4091 110.32 38.4545C110.32 37.483 110.136 36.7244 109.766 36.179C109.397 35.6278 108.888 35.3523 108.241 35.3523C107.593 35.3523 107.09 35.6278 106.732 36.179C106.374 36.7244 106.195 37.483 106.195 38.4545C106.195 39.4261 106.374 40.1761 106.732 40.7045C107.09 41.2273 107.593 41.4886 108.241 41.4886Z" fill="white"/>
</svg>
