<svg width="177" height="23" viewBox="0 0 177 23" fill="none" xmlns="http://www.w3.org/2000/svg">
<path d="M0.125 18V0.545454H7.65909C8.95455 0.545454 10.0881 0.78125 11.0597 1.25284C12.0313 1.72443 12.7869 2.40341 13.3267 3.28977C13.8665 4.17614 14.1364 5.23864 14.1364 6.47727C14.1364 7.6875 13.8722 8.71307 13.3438 9.55398C12.821 10.3949 12.0966 11.0398 11.1705 11.4886L14.7159 18H9.56818L6.5 12.2386H4.86364V18H0.125ZM4.86364 8.55682H6.53409C7.36364 8.55682 8.0142 8.39773 8.4858 8.07955C8.95739 7.75568 9.19318 7.22159 9.19318 6.47727C9.19318 5.72727 8.95739 5.18182 8.4858 4.84091C8.0142 4.5 7.36364 4.32954 6.53409 4.32954H4.86364V8.55682ZM20.6903 18H15.5767L21.3381 0.545454H27.8153L33.5767 18H28.4631L27.4574 14.6591H21.696L20.6903 18ZM22.7699 11.1136H26.3835L24.6449 5.35227H24.5085L22.7699 11.1136ZM45.7727 6.30682C45.6307 5.71023 45.3182 5.25 44.8352 4.92614C44.3523 4.59659 43.7386 4.43182 42.9943 4.43182C41.8011 4.43182 40.8778 4.85511 40.2244 5.7017C39.571 6.5483 39.2443 7.72727 39.2443 9.23864C39.2443 10.7727 39.5568 11.9687 40.1818 12.8267C40.8068 13.6847 41.733 14.1136 42.9602 14.1136C44.0227 14.1136 44.821 13.8892 45.3551 13.4403C45.8949 12.9915 46.1761 12.3864 46.1989 11.625H43.0284V8.25H50.767V10.6705C50.767 12.2614 50.429 13.6222 49.7528 14.7528C49.0824 15.8778 48.1563 16.7415 46.9744 17.3438C45.7983 17.9403 44.4489 18.2386 42.9261 18.2386C41.2273 18.2386 39.7358 17.8778 38.4517 17.1562C37.1676 16.4347 36.1648 15.4062 35.4432 14.071C34.7273 12.7358 34.3693 11.1477 34.3693 9.30682C34.3693 7.38636 34.7528 5.75568 35.5199 4.41477C36.2869 3.07386 37.3153 2.05398 38.6051 1.35511C39.8949 0.65625 41.3239 0.306818 42.892 0.306818C44.267 0.306818 45.5114 0.565341 46.625 1.08239C47.7386 1.59375 48.642 2.30114 49.3352 3.20454C50.0341 4.10227 50.4432 5.13636 50.5625 6.30682H45.7727ZM52.9766 18V0.545454H60.5447C62.5391 0.545454 64.0533 0.940341 65.0874 1.73011C66.1271 2.51989 66.647 3.57955 66.647 4.90909C66.647 5.86932 66.3374 6.69602 65.718 7.3892C65.0987 8.08239 64.2834 8.52841 63.272 8.72727V8.89773C64.022 8.92614 64.7038 9.11648 65.3175 9.46875C65.9311 9.81534 66.4197 10.2955 66.7834 10.9091C67.147 11.517 67.3288 12.233 67.3288 13.0568C67.3288 14.0114 67.0788 14.8608 66.5788 15.6051C66.0845 16.3494 65.38 16.9347 64.4652 17.3608C63.5504 17.7869 62.4595 18 61.1925 18H52.9766ZM57.7152 14.2159H59.9311C61.522 14.2159 62.3175 13.625 62.3175 12.4432C62.3175 11.8295 62.1101 11.358 61.6953 11.0284C61.2862 10.6989 60.7209 10.5341 59.9993 10.5341H57.7152V14.2159ZM57.7152 7.60227H59.6584C60.2834 7.60227 60.7919 7.45739 61.1839 7.16761C61.576 6.87784 61.772 6.46591 61.772 5.93182C61.772 5.39204 61.5788 4.98011 61.1925 4.69602C60.8061 4.40625 60.3175 4.26136 59.7266 4.26136H57.7152V7.60227ZM69.0078 18V0.545454H76.5419C77.8374 0.545454 78.9709 0.78125 79.9425 1.25284C80.9141 1.72443 81.6697 2.40341 82.2095 3.28977C82.7493 4.17614 83.0192 5.23864 83.0192 6.47727C83.0192 7.6875 82.755 8.71307 82.2266 9.55398C81.7038 10.3949 80.9794 11.0398 80.0533 11.4886L83.5987 18H78.451L75.3828 12.2386H73.7464V18H69.0078ZM73.7464 8.55682H75.4169C76.2464 8.55682 76.897 8.39773 77.3686 8.07955C77.8402 7.75568 78.076 7.22159 78.076 6.47727C78.076 5.72727 77.8402 5.18182 77.3686 4.84091C76.897 4.5 76.2464 4.32954 75.4169 4.32954H73.7464V8.55682ZM89.5732 18H84.4595L90.2209 0.545454H96.6982L102.46 18H97.3459L96.3402 14.6591H90.5788L89.5732 18ZM91.6527 11.1136H95.2663L93.5277 5.35227H93.3913L91.6527 11.1136ZM108.879 0.545454V18H104.141V0.545454H108.879ZM115.761 15.6136L115.693 16.5682C115.636 17.3864 115.5 18.1705 115.284 18.9205C115.074 19.6705 114.849 20.3352 114.611 20.9148C114.378 21.4943 114.193 21.9432 114.057 22.2614H111.159C111.25 21.9432 111.378 21.483 111.543 20.8807C111.713 20.2841 111.866 19.608 112.003 18.8523C112.145 18.1023 112.216 17.3409 112.216 16.5682V15.6136H115.761ZM126.926 0.545454V18H122.188V0.545454H126.926ZM135.547 18.2386C134.126 18.2386 132.911 17.9574 131.899 17.3949C130.888 16.8267 130.112 16.0369 129.572 15.0256C129.033 14.0085 128.763 12.8295 128.763 11.4886C128.763 10.1477 129.033 8.97159 129.572 7.96023C130.112 6.94318 130.888 6.15341 131.899 5.59091C132.911 5.02273 134.126 4.73864 135.547 4.73864C136.967 4.73864 138.183 5.02273 139.195 5.59091C140.206 6.15341 140.982 6.94318 141.521 7.96023C142.061 8.97159 142.331 10.1477 142.331 11.4886C142.331 12.8295 142.061 14.0085 141.521 15.0256C140.982 16.0369 140.206 16.8267 139.195 17.3949C138.183 17.9574 136.967 18.2386 135.547 18.2386ZM135.581 14.7614C136.178 14.7614 136.649 14.4687 136.996 13.8835C137.348 13.2926 137.524 12.483 137.524 11.4545C137.524 10.4261 137.348 9.61932 136.996 9.03409C136.649 8.44318 136.178 8.14773 135.581 8.14773C134.95 8.14773 134.456 8.44318 134.098 9.03409C133.746 9.61932 133.57 10.4261 133.57 11.4545C133.57 12.483 133.746 13.2926 134.098 13.8835C134.456 14.4687 134.95 14.7614 135.581 14.7614ZM146.324 18L143.051 4.90909H147.756L149.256 12.8864H149.358L151.028 4.90909H155.597L157.335 12.8182H157.438L158.869 4.90909H163.574L160.301 18H155.222L153.381 10.9773H153.244L151.403 18H146.324ZM168.653 18.2045C167.403 18.2045 166.381 17.8949 165.585 17.2756C164.79 16.6506 164.392 15.6875 164.392 14.3864C164.392 13.4261 164.605 12.6534 165.031 12.0682C165.457 11.483 166.034 11.0455 166.761 10.7557C167.489 10.4659 168.301 10.2898 169.199 10.2273C170.301 10.1477 171.082 10.0312 171.543 9.87784C172.003 9.71875 172.233 9.44886 172.233 9.06818V9.03409C172.233 8.69318 172.102 8.43182 171.841 8.25C171.58 8.06818 171.244 7.97727 170.835 7.97727C170.386 7.97727 170.02 8.0767 169.736 8.27557C169.457 8.46875 169.29 8.76705 169.233 9.17045H164.903C164.96 8.375 165.213 7.64205 165.662 6.97159C166.116 6.29545 166.778 5.75568 167.648 5.35227C168.517 4.94318 169.602 4.73864 170.903 4.73864C172.153 4.73864 173.227 4.92898 174.125 5.30966C175.028 5.69034 175.722 6.20454 176.205 6.85227C176.693 7.5 176.938 8.22727 176.938 9.03409V18H172.54V16.1591H172.438C172.04 16.892 171.523 17.4176 170.886 17.7358C170.25 18.0483 169.506 18.2045 168.653 18.2045ZM170.188 15.2386C170.722 15.2386 171.202 15.0767 171.628 14.7528C172.054 14.4233 172.267 13.9602 172.267 13.3636V12.2727C171.801 12.4659 171.176 12.625 170.392 12.75C169.847 12.8352 169.449 13 169.199 13.2443C168.949 13.4886 168.824 13.7784 168.824 14.1136C168.824 14.4773 168.952 14.7557 169.207 14.9489C169.463 15.142 169.79 15.2386 170.188 15.2386Z" fill="white"/>
</svg>
